<?xml version="1.0" encoding="UTF-8" standalone="no"?>
<!-- Created with Inkscape (http://www.inkscape.org/) -->

<svg
   xmlns:dc="http://purl.org/dc/elements/1.1/"
   xmlns:cc="http://creativecommons.org/ns#"
   xmlns:rdf="http://www.w3.org/1999/02/22-rdf-syntax-ns#"
   xmlns:svg="http://www.w3.org/2000/svg"
   xmlns="http://www.w3.org/2000/svg"
   xmlns:sodipodi="http://sodipodi.sourceforge.net/DTD/sodipodi-0.dtd"
   xmlns:inkscape="http://www.inkscape.org/namespaces/inkscape"
   width="1in"
   height="1in"
   viewBox="0 0 25.4 25.400001"
   version="1.1"
   id="svg8"
   inkscape:export-filename="C:\Users\mark.LIEBS\Source\Repos\downloadstar\src\icons\icon-96.png"
   inkscape:export-xdpi="96"
   inkscape:export-ydpi="96"
   inkscape:version="0.91 r13725"
   sodipodi:docname="icon-dark.svg">
  <defs
     id="defs2" />
  <sodipodi:namedview
     id="base"
     pagecolor="#ffffff"
     bordercolor="#666666"
     borderopacity="1.0"
     inkscape:pageopacity="0.0"
     inkscape:pageshadow="2"
     inkscape:zoom="13.355556"
     inkscape:cx="33.581531"
     inkscape:cy="62.97005"
     inkscape:document-units="mm"
     inkscape:current-layer="layer1"
     showgrid="false"
     units="in"
     inkscape:window-width="2560"
     inkscape:window-height="1377"
     inkscape:window-x="-8"
     inkscape:window-y="-8"
     inkscape:window-maximized="1" />
  <metadata
     id="metadata5">
    <rdf:RDF>
      <cc:Work
         rdf:about="">
        <dc:format>image/svg+xml</dc:format>
        <dc:type
           rdf:resource="http://purl.org/dc/dcmitype/StillImage" />
        <dc:title></dc:title>
      </cc:Work>
    </rdf:RDF>
  </metadata>
  <g
     inkscape:label="Layer 1"
     inkscape:groupmode="layer"
     id="layer1"
     transform="translate(0,-271.59998)">
    <path
       style="fill:#5a5b5c;fill-opacity:1;stroke:none;stroke-width:1.14800012;stroke-miterlimit:4;stroke-dasharray:none;stroke-opacity:1"
       d="M 45.380859 1.0859375 C 43.837844 1.0702628 42.282639 1.2070748 41.146484 1.5 C 38.77367 2.1118228 36.331606 3.4654281 35.183594 4.8066406 C 32.690716 7.7190263 32.34993 11.902808 33.902344 20.566406 C 34.398458 23.335075 34.768028 25.767499 34.722656 25.972656 C 34.67139 26.204495 32.939979 25.159535 30.142578 23.207031 C 22.597041 17.940508 19.6352 16.709867 15.962891 17.318359 C 9.9279871 18.318387 5.5227459 23.812389 5.4492188 30.431641 C 5.4111693 33.858266 6.569613 35.987258 9.5527344 37.966797 C 11.573184 39.307513 15.934228 41.442374 20.302734 43.230469 C 22.312824 44.053154 24.055762 44.809172 24.175781 44.910156 C 24.295825 45.011282 22.461655 45.890325 20.099609 46.863281 C 9.5937701 51.190509 6.3110843 53.696937 5.515625 58 C 4.6970765 62.427964 7.2742054 68.239416 11.203125 70.826172 C 13.530426 72.358688 15.290574 72.82995 18.181641 72.691406 C 20.347722 72.587871 20.915214 72.438436 23 71.431641 C 24.299741 70.803944 27.43363 68.812733 29.964844 67.005859 C 32.496069 65.198915 34.62989 63.784438 34.707031 63.861328 C 34.784172 63.938466 34.434318 66.441998 33.929688 69.425781 C 32.813617 76.024907 32.679176 79.966805 33.490234 82.300781 C 34.233724 84.440301 36.817825 87.005668 39.097656 87.867188 C 45.034761 90.110774 52.777639 88.658284 55.591797 84.773438 C 57.574837 82.035914 57.738109 79.220216 56.427734 70.273438 C 55.92304 66.827642 55.583297 63.934104 55.673828 63.84375 C 55.764409 63.753148 57.458999 64.81112 59.4375 66.195312 C 68.055386 72.224568 69.494303 72.885044 73.583984 72.689453 C 75.637448 72.591304 76.337427 72.423854 77.880859 71.664062 C 82.011678 69.630452 84.636931 64.915052 84.636719 59.529297 C 84.636481 54.098293 81.638989 51.509423 69.832031 46.742188 C 67.8501 45.941967 66.258244 45.171383 66.292969 45.029297 C 66.328033 44.887139 69.023999 43.631904 72.285156 42.240234 C 82.518559 37.873215 84.611172 35.915006 84.621094 30.701172 C 84.629141 26.330857 83.430584 23.257698 80.617188 20.425781 C 78.529723 18.3246 76.882296 17.54686 73.818359 17.21875 C 70.339502 16.846242 66.950808 18.338442 60.013672 23.296875 C 56.071715 26.114477 55.717869 26.309748 55.640625 25.707031 C 55.594381 25.346358 55.954162 22.594214 56.439453 19.589844 C 57.765096 11.383155 57.623976 8.7228887 55.701172 5.6621094 C 54.438174 3.6516725 52.703448 2.5037914 49.539062 1.5839844 C 48.453944 1.2683643 46.923874 1.1016122 45.380859 1.0859375 z M 44.84375 27.457031 C 46.931367 27.439315 47.233382 27.452182 47.621094 27.587891 L 47.621094 27.589844 C 48.429691 27.874017 49.021509 28.39097 49.355469 29.109375 C 49.529091 29.482698 49.530093 29.55824 49.552734 38.269531 L 49.576172 47.052734 L 53.359375 43.279297 C 56.945184 39.705163 57.170781 39.498014 57.646484 39.322266 C 58.355752 39.060061 59.466474 39.106348 60.074219 39.423828 C 60.592257 39.694182 63.036875 42.137379 63.28125 42.628906 C 63.675081 43.421083 63.677238 44.501095 63.287109 45.333984 C 63.146865 45.633039 61.249492 47.580679 54.978516 53.863281 C 45.692798 63.166233 46.412641 62.541016 44.970703 62.541016 C 43.53504 62.541016 44.293658 63.197972 35.035156 53.939453 C 25.75168 44.655989 26.433594 45.445658 26.433594 43.962891 C 26.433594 42.757918 26.561689 42.532857 28.160156 40.929688 C 29.77099 39.314046 29.98313 39.193359 31.244141 39.193359 C 32.06846 39.193359 32.150536 39.20862 32.556641 39.445312 C 32.837983 39.608305 34.272661 40.96722 36.65625 43.328125 L 40.324219 46.960938 L 40.367188 38.263672 L 40.408203 29.566406 L 40.683594 29.005859 C 40.988885 28.385816 41.339193 28.051401 42.041016 27.705078 L 42.5 27.478516 L 44.84375 27.457031 z "
       transform="matrix(0.28222224,0,0,0.28222224,-1.0765924e-6,271.59998)"
       id="path4496" />
  </g>
</svg>
