<?xml version="1.0" encoding="UTF-8" standalone="no"?>
<!-- Created with Inkscape (http://www.inkscape.org/) -->

<svg
   xmlns:dc="http://purl.org/dc/elements/1.1/"
   xmlns:cc="http://creativecommons.org/ns#"
   xmlns:rdf="http://www.w3.org/1999/02/22-rdf-syntax-ns#"
   xmlns:svg="http://www.w3.org/2000/svg"
   xmlns="http://www.w3.org/2000/svg"
   xmlns:sodipodi="http://sodipodi.sourceforge.net/DTD/sodipodi-0.dtd"
   xmlns:inkscape="http://www.inkscape.org/namespaces/inkscape"
   width="1in"
   height="1in"
   viewBox="0 0 25.4 25.400001"
   version="1.1"
   id="svg8"
   inkscape:export-filename="C:\Users\mark.LIEBS\Source\Repos\downloadstar\src\icons\icon-96.png"
   inkscape:export-xdpi="96"
   inkscape:export-ydpi="96"
   inkscape:version="0.92.1 r15371"
   sodipodi:docname="icon.svg">
  <defs
     id="defs2" />
  <sodipodi:namedview
     id="base"
     pagecolor="#ffffff"
     bordercolor="#666666"
     borderopacity="1.0"
     inkscape:pageopacity="0.0"
     inkscape:pageshadow="2"
     inkscape:zoom="5.6"
     inkscape:cx="-32.053571"
     inkscape:cy="-15.910122"
     inkscape:document-units="mm"
     inkscape:current-layer="layer1"
     showgrid="false"
     units="in"
     inkscape:window-width="3840"
     inkscape:window-height="2066"
     inkscape:window-x="-11"
     inkscape:window-y="-11"
     inkscape:window-maximized="1" />
  <metadata
     id="metadata5">
    <rdf:RDF>
      <cc:Work
         rdf:about="">
        <dc:format>image/svg+xml</dc:format>
        <dc:type
           rdf:resource="http://purl.org/dc/dcmitype/StillImage" />
        <dc:title></dc:title>
      </cc:Work>
    </rdf:RDF>
  </metadata>
  <g
     inkscape:label="Layer 1"
     inkscape:groupmode="layer"
     id="layer1"
     transform="translate(0,-271.59998)">
    <path
       style="fill:#ffffff;fill-opacity:1;stroke:#000000;stroke-width:1.14819145;stroke-miterlimit:4;stroke-dasharray:none;stroke-opacity:1"
       d="m 13.950606,272.33966 c 0.871746,0.2534 1.349323,0.5695 1.697262,1.12335 0.529707,0.8432 0.568535,1.57582 0.203338,3.83665 -0.133691,0.82766 -0.232653,1.5861 -0.219914,1.68546 0.02128,0.16604 0.11857,0.11242 1.204527,-0.66379 1.911087,-1.36598 2.844782,-1.77705 3.803161,-1.67443 0.844073,0.0904 1.298256,0.30459 1.873324,0.88344 0.775053,0.78016 1.104832,1.62681 1.102615,2.83078 -0.0027,1.43634 -0.578953,1.97541 -3.398119,3.17846 -0.898405,0.38339 -1.641363,0.7291 -1.651023,0.76826 -0.0096,0.0391 0.429163,0.25156 0.975158,0.47201 3.252659,1.31331 4.078498,2.02662 4.078563,3.52279 5.9e-5,1.4837 -0.723288,2.78298 -1.861274,3.34321 -0.425195,0.20932 -0.617934,0.25529 -1.183636,0.28233 -1.126652,0.0539 -1.523383,-0.12825 -3.897495,-1.78923 -0.54505,-0.38133 -1.011413,-0.67292 -1.036367,-0.64796 -0.02494,0.0249 0.06839,0.82203 0.207424,1.7713 0.360991,2.46472 0.316311,3.24083 -0.22999,3.99499 -0.775262,1.07022 -2.90838,1.47028 -4.543972,0.8522 -0.628063,-0.23734 -1.3401467,-0.94418 -1.5449682,-1.53358 -0.2234357,-0.64298 -0.1863572,-1.72893 0.1211053,-3.5469 0.139019,-0.822 0.2353731,-1.51192 0.2141219,-1.53317 -0.021251,-0.0212 -0.6091673,0.36864 -1.3064858,0.86643 -0.6973153,0.49777 -1.5608045,1.04655 -1.9188656,1.21947 -0.5743307,0.27736 -0.7306934,0.3182 -1.3274198,0.34673 -0.7964502,0.0382 -1.2808998,-0.0913 -1.9220399,-0.51346 -1.0823646,-0.71262 -1.792448,-2.31406 -1.5669489,-3.53391 0.2191384,-1.18543 1.1231076,-1.87575 4.0173253,-3.06785 0.6507119,-0.26803 1.1560583,-0.51011 1.1229879,-0.53797 -0.033064,-0.0278 -0.5131918,-0.23609 -1.0669447,-0.46273 -1.2034649,-0.4926 -2.4045226,-1.08078 -2.9611294,-1.45013 -0.8218099,-0.54534 -1.1411828,-1.1316 -1.1307007,-2.07559 0.020256,-1.82351 1.2337541,-3.33714 2.896289,-3.61264 1.0116721,-0.16763 1.8275134,0.17113 3.9062075,1.62199 0.7706464,0.53788 1.2477492,0.82607 1.2618723,0.7622 0.012499,-0.0565 -0.089113,-0.72675 -0.2257859,-1.48948 -0.4276692,-2.38671 -0.3340498,-3.53906 0.3527045,-4.34139 0.3162622,-0.36948 0.9891642,-0.74272 1.6428432,-0.91126 0.62599,-0.1614 1.714379,-0.15038 2.31225,0.0235 z"
       id="path4496"
       inkscape:connector-curvature="0"
       sodipodi:nodetypes="ccccccscccccccccccccsccsccssccccccccsscc" />
    <path
       style="fill:#000000;stroke-width:0.01838203"
       d="m 13.275903,280.47554 c 0.177619,0.0624 0.307297,0.17614 0.380655,0.33395 0.03814,0.082 0.03849,0.0984 0.04346,2.01195 l 0.005,1.92924 0.831375,-0.82866 c 0.787668,-0.7851 0.837173,-0.83081 0.941667,-0.86942 0.1558,-0.0576 0.39958,-0.0473 0.533079,0.0224 0.113794,0.0594 0.65082,0.59623 0.7045,0.7042 0.08651,0.17401 0.08702,0.41097 0.0013,0.59393 -0.03081,0.0657 -0.447539,0.49358 -1.825037,1.87363 -2.039725,2.04351 -1.881577,1.90637 -2.198317,1.90637 -0.315361,0 -0.148755,0.14424 -2.182501,-1.88951 -2.0392321,-2.03923 -1.8895061,-1.86559 -1.8895061,-2.1913 0,-0.26469 0.02833,-0.31447 0.379453,-0.66663 0.35384,-0.35489 0.400517,-0.38115 0.6775139,-0.38115 0.181072,0 0.198893,0.003 0.288099,0.0551 0.0618,0.0358 0.3771342,0.3345 0.9007192,0.8531 l 0.805632,0.79796 0.0092,-1.91047 0.0092,-1.91048 0.06057,-0.12302 c 0.06706,-0.1362 0.143714,-0.20975 0.297878,-0.28583 l 0.101101,-0.0499 0.514697,-0.005 c 0.458572,-0.004 0.52512,-8.7e-4 0.610286,0.029 z"
       id="path4524"
       inkscape:connector-curvature="0" />
  </g>
</svg>
